<?xml version="1.0" encoding="UTF-8"?>
<!DOCTYPE svg PUBLIC "-//W3C//DTD SVG 1.1//EN" "http://www.w3.org/Graphics/SVG/1.1/DTD/svg11.dtd">
<!-- Creator: CorelDRAW 2021 (64-Bit) -->
<svg xmlns="http://www.w3.org/2000/svg" xml:space="preserve" width="4000px" height="2025px" version="1.1" style="shape-rendering:geometricPrecision; text-rendering:geometricPrecision; image-rendering:optimizeQuality; fill-rule:evenodd; clip-rule:evenodd"
viewBox="0 0 510.65 258.86"
 xmlns:xlink="http://www.w3.org/1999/xlink"
 xmlns:xodm="http://www.corel.com/coreldraw/odm/2003">
 <defs>
  <style type="text/css">
   <![CDATA[
    .fil1 {fill:#00A44E}
    .fil0 {fill:#FE7200}
    .fil3 {fill:#00A44E;fill-rule:nonzero}
    .fil2 {fill:#FE7200;fill-rule:nonzero}
   ]]>
  </style>
 </defs>
 <g id="Layer_x0020_1">
  <metadata id="CorelCorpID_0Corel-Layer"/>
  <path class="fil0" d="M148.14 194.47c-4.07,0.8 -11.25,5.71 -17.36,7.85 -18.85,6.61 -56.23,6.83 -73.71,4.72l-0.23 -38.64 -56.73 -0.06 -0.11 90.28c22.02,0.09 104.95,1.05 123.94,-1.6 7.07,-0.98 29.39,-5.61 32.38,-8.73 13.07,-3.06 29.06,-14.72 37.86,-21.84 35.71,-28.87 51.8,-80.75 40.15,-129.77 -7.55,-31.8 -27.47,-56.26 -47.5,-70.42 -26.45,-18.69 -52.9,-26.07 -92.78,-26.26l-0.03 51.7c21.14,-0.05 37.32,2.96 51.79,12.38 37.22,24.23 42.13,80.83 18.53,113.36 -2.42,3.34 -5.07,5.95 -7.47,8.46 -3.15,3.29 -7.03,5.47 -8.73,8.57z"/>
  <path class="fil1" d="M0.54 52.52c-0.01,8.13 1.81,9.61 10.11,9.65 7.07,0.04 14.25,-0.02 21.33,-0.07 11.91,-0.07 9.45,-1.02 15.97,5.27 8.88,8.56 6.44,9.02 6.43,31.91 0,6.63 -2.76,8.2 -5.89,11.18 -6.66,6.34 -8.66,4.92 -21.83,4.93 -12.45,0.01 -11.23,2.64 -11.23,15.77 0,8.64 -2.12,15.5 7.95,16.26 7.51,0.56 17.55,0.5 22.62,-2.12 1.35,-1.55 1.19,-12.97 1.19,-16.26 0,-9.48 0.11,-8.77 5.3,-13.52 9.84,-9 10.62,-5.08 33.76,-5.63 12.23,-0.29 9.11,-10.36 9.11,-31.86 0,-12.66 -7.64,-9.39 -32.56,-9.4 -6.16,0 -8,-3.54 -11.35,-6.88 -4.89,-4.86 -4.26,-4.75 -4.26,-13.48 0,-38.83 6.03,-32.93 -37.4,-32.93 -10.09,0 -9.32,4.58 -9.25,13.78 0.06,7.79 0.02,15.6 0,23.4z"/>
  <polygon class="fil2" points="255.02,104.89 270.76,104.89 270.76,178.01 255.02,178.01 "/>
  <path id="_1" class="fil2" d="M285.23 104.89l21.33 0c8.9,0 14.98,1.87 18.25,5.57 3.27,3.73 4.9,8.08 4.9,13.06 0,3.16 -0.59,5.84 -1.78,8.01 -1.18,2.18 -3.1,4.39 -5.74,6.61 5.07,1.75 8.65,4.32 10.76,7.7 2.11,3.38 3.15,7.02 3.15,10.87 0,6.71 -2.3,11.94 -6.9,15.69 -4.62,3.74 -11.1,5.61 -19.45,5.61l-24.52 0 0 -73.12zm15.74 12.21l0 16.08 3.63 0c2.68,0 4.93,-0.85 6.75,-2.55 1.83,-1.71 2.74,-3.8 2.74,-6.31 0,-2.01 -0.9,-3.72 -2.68,-5.11 -1.79,-1.41 -4.01,-2.11 -6.69,-2.11l-3.75 0zm0 28.51l0 20.19 5.69 0c8.68,0 13.02,-3.17 13.02,-9.5 0,-3.44 -1.07,-6.07 -3.18,-7.91 -2.11,-1.85 -5.13,-2.78 -9.07,-2.78l-6.46 0z"/>
  <path id="_2" class="fil2" d="M343.5 141.43c0,-10.82 3.57,-19.73 10.72,-26.78 7.14,-7.04 15.62,-10.55 25.41,-10.55 10.86,0 19.81,3.53 26.9,10.6 7.09,7.09 10.65,16.03 10.65,26.83 0,10.74 -3.52,19.65 -10.53,26.74 -7.02,7.09 -15.86,10.65 -26.5,10.65 -10.67,0 -19.43,-3.54 -26.33,-10.59 -6.88,-7.05 -10.32,-16.03 -10.32,-26.9zm36.91 -22.73c-6.14,-0.12 -11.08,1.99 -14.84,6.34 -3.77,4.36 -5.65,9.97 -5.65,16.83 0,6.5 1.92,11.88 5.76,16.16 3.82,4.27 8.67,6.4 14.52,6.4 6.14,0 11.1,-2.11 14.89,-6.33 3.78,-4.2 5.66,-9.77 5.66,-16.67 0,-6.8 -1.84,-12.26 -5.55,-16.39 -3.71,-4.12 -8.63,-6.23 -14.79,-6.34z"/>
  <polygon id="_3" class="fil2" points="435.52,104.89 454.28,104.89 468.01,148.69 481.75,104.89 499.83,104.89 509.13,178.01 494.17,178.01 487.74,126.57 471.6,178.01 464.43,178.01 447.93,126.11 441.81,178.01 426.55,178.01 "/>
  <path class="fil3" d="M237.98 184.92l8.32 0 20.11 49.39 -10.71 0 -3.95 -9.71 -18.96 0 -3.88 9.71 -10.65 0 19.72 -49.39zm4.2 16.18l-5.82 14.56 11.75 0 -5.93 -14.56z"/>
  <polygon id="_1_0" class="fil3" points="265.87,184.92 299.08,184.92 299.08,195.4 287.75,195.4 287.75,234.31 277.12,234.31 277.12,195.4 265.87,195.4 "/>
  <path id="_2_1" class="fil3" d="M317.89 184.92l8.32 0 20.11 49.39 -10.71 0 -3.95 -9.71 -18.96 0 -3.87 9.71 -10.66 0 19.72 -49.39zm4.2 16.18l-5.82 14.56 11.75 0 -5.93 -14.56z"/>
  <path id="_3_2" class="fil3" d="M353.64 184.92l14.41 0c6.01,0 10.12,1.26 12.33,3.76 2.21,2.52 3.31,5.46 3.31,8.82 0,2.13 -0.4,3.94 -1.21,5.41 -0.79,1.47 -2.09,2.96 -3.87,4.47 3.42,1.18 5.84,2.91 7.26,5.2 1.43,2.28 2.13,4.74 2.13,7.34 0,4.54 -1.55,8.07 -4.66,10.6 -3.12,2.53 -7.5,3.79 -13.13,3.79l-16.57 0 0 -49.39zm10.63 8.24l0 10.87 2.46 0c1.81,0 3.32,-0.58 4.56,-1.73 1.23,-1.15 1.84,-2.56 1.84,-4.26 0,-1.36 -0.6,-2.52 -1.81,-3.45 -1.2,-0.95 -2.71,-1.43 -4.52,-1.43l-2.53 0zm0 19.26l0 13.64 3.84 0c5.87,0 8.8,-2.14 8.8,-6.42 0,-2.32 -0.72,-4.1 -2.14,-5.34 -1.43,-1.25 -3.47,-1.88 -6.13,-1.88l-4.37 0z"/>
  <path id="_4" class="fil3" d="M410.18 184.92l8.32 0 20.11 49.39 -10.71 0 -3.95 -9.71 -18.96 0 -3.87 9.71 -10.66 0 19.72 -49.39zm4.2 16.18l-5.82 14.56 11.75 0 -5.93 -14.56z"/>
  <path id="_5" class="fil3" d="M473.82 189.36l-6.62 7.27c-3.51,-2.06 -6.04,-3.08 -7.58,-3.08 -1.19,0 -2.22,0.45 -3.08,1.33 -0.86,0.89 -1.28,1.94 -1.28,3.16 0,2.43 2.2,4.53 6.62,6.33 3.24,1.39 5.69,2.65 7.36,3.76 1.67,1.12 3.07,2.66 4.2,4.65 1.13,1.98 1.69,4.13 1.69,6.44 0,4.25 -1.72,7.93 -5.15,11.07 -3.42,3.14 -7.48,4.71 -12.16,4.71 -5.13,0 -10.19,-2.42 -15.2,-7.24l7 -8.17c3.16,3.23 6.1,4.85 8.86,4.85 1.28,0 2.52,-0.56 3.7,-1.69 1.19,-1.12 1.78,-2.3 1.78,-3.55 0,-2.54 -2.72,-4.82 -8.17,-6.83 -3.1,-1.15 -5.31,-2.23 -6.63,-3.22 -1.33,-0.99 -2.44,-2.44 -3.34,-4.33 -0.9,-1.9 -1.35,-3.83 -1.35,-5.82 0,-4.39 1.44,-7.94 4.3,-10.68 2.86,-2.74 6.61,-4.1 11.25,-4.1 5.48,0 10.08,1.71 13.8,5.14z"/>
  <polygon id="_6" class="fil3" points="482.84,184.92 510.65,184.92 510.65,194.7 493.47,194.7 493.47,204.64 510.65,204.64 510.65,214.27 493.47,214.27 493.47,224.52 510.65,224.52 510.65,234.31 482.84,234.31 "/>
 </g>
</svg>
